<svg width="113" height="22" viewBox="0 0 113 22" fill="none" xmlns="http://www.w3.org/2000/svg">
<path d="M33.7208 14.0553C33.8091 15.1912 34.2682 16.0927 35.0805 16.7778C35.8928 17.4629 36.9523 17.8055 38.259 17.8055C39.4069 17.8055 40.3251 17.5531 41.0314 17.0482C41.7378 16.5434 42.091 15.8403 42.091 14.9568C42.091 14.3258 41.8967 13.8029 41.5082 13.4423C41.1197 13.0637 40.6076 12.7753 39.9366 12.5769C39.2656 12.3786 38.3473 12.1623 37.1465 11.9459C35.9281 11.7295 34.8862 11.4411 34.021 11.0805C33.1557 10.7199 32.4494 10.179 31.9019 9.45783C31.3545 8.71862 31.0896 7.76306 31.0896 6.57312C31.0896 5.47332 31.3722 4.49973 31.9373 3.63432C32.5023 2.7689 33.2793 2.10181 34.3035 1.63304C35.3101 1.16428 36.4755 0.911865 37.7823 0.911865C39.1243 0.911865 40.3251 1.16428 41.3846 1.68713C42.4441 2.19196 43.2741 2.89511 43.8745 3.79658C44.4749 4.69805 44.8104 5.7077 44.8634 6.86159H41.8261C41.7201 5.86997 41.2963 5.07667 40.5723 4.4817C39.8307 3.88673 38.9124 3.58023 37.7823 3.58023C36.6874 3.58023 35.8222 3.81461 35.1688 4.30141C34.5154 4.7882 34.1976 5.47332 34.1976 6.33874C34.1976 6.95174 34.3918 7.45656 34.7803 7.81715C35.1688 8.17774 35.6809 8.44818 36.3166 8.64651C36.9523 8.8268 37.8882 9.02513 39.089 9.24148C40.3074 9.45783 41.3493 9.7463 42.2322 10.1249C43.1152 10.4855 43.8215 11.0264 44.3866 11.7476C44.934 12.4688 45.2165 13.4063 45.2165 14.5782C45.2165 15.7141 44.9163 16.7237 44.3336 17.6252C43.7509 18.5267 42.9209 19.2118 41.8614 19.7166C40.8019 20.2214 39.6011 20.4738 38.259 20.4738C36.7757 20.4738 35.469 20.2034 34.3388 19.6445C33.2087 19.1036 32.3257 18.3283 31.69 17.3547C31.0543 16.3811 30.7365 15.2633 30.7188 14.0013L33.7208 14.0553ZM48.4834 8.88089H46.0995V6.28465H48.4834V2.35422H51.4147V6.26662H54.7169V8.86286H51.4147V16.1828C51.4147 16.7237 51.5207 17.1204 51.7326 17.3547C51.9445 17.5891 52.3153 17.6973 52.8274 17.6973H55.0347V20.3116H52.2447C50.9379 20.3116 49.9844 20.0051 49.384 19.374C48.7836 18.761 48.4834 17.7874 48.4834 16.4893V8.88089ZM69.6384 6.28465V20.3116H67.0956L66.7777 18.1661C66.3009 18.8692 65.6829 19.4101 64.9235 19.8428C64.1642 20.2575 63.299 20.4738 62.2924 20.4738C61.0387 20.4738 59.9262 20.1854 58.9373 19.6084C57.9484 19.0315 57.1891 18.2021 56.624 17.1204C56.0766 16.0386 55.794 14.7585 55.794 13.2981C55.794 11.8738 56.0766 10.6117 56.6417 9.52995C57.2067 8.44818 57.9837 7.6008 58.9549 7.00583C59.9438 6.41085 61.0563 6.12238 62.2748 6.12238C63.299 6.12238 64.1819 6.3207 64.9235 6.71735C65.6829 7.114 66.2833 7.65489 66.7424 8.34001L67.0956 6.28465H69.6384ZM65.6652 16.6876C66.4069 15.8222 66.76 14.7224 66.76 13.3522C66.76 11.9639 66.3892 10.8281 65.6652 9.96266C64.9235 9.07921 63.97 8.64651 62.7692 8.64651C61.5684 8.64651 60.5972 9.07921 59.8732 9.94463C59.1315 10.81 58.7783 11.9279 58.7783 13.2981C58.7783 14.6864 59.1492 15.8222 59.8732 16.6876C60.6148 17.5531 61.5684 17.9858 62.7692 17.9858C63.97 17.9858 64.9412 17.5531 65.6652 16.6876ZM83.0943 19.0856C81.9818 20.0051 80.5691 20.4738 78.8209 20.4738C77.4612 20.4738 76.2604 20.1854 75.2185 19.5904C74.1767 18.9954 73.382 18.148 72.8169 17.0482C72.2519 15.9484 71.9693 14.6864 71.9693 13.2621C71.9693 11.8377 72.2519 10.5937 72.8346 9.51192C73.3997 8.43015 74.212 7.6008 75.2715 7.00583C76.3134 6.41085 77.5318 6.12238 78.9092 6.12238C80.6221 6.12238 82.0347 6.59115 83.1296 7.51065C84.2244 8.43015 84.8954 9.69222 85.178 11.2788H82.1937C81.9994 10.4675 81.6109 9.83645 81.0106 9.36769C80.4278 8.89892 79.7038 8.64651 78.8385 8.64651C77.6731 8.64651 76.7372 9.07921 76.0308 9.9266C75.3245 10.792 74.9713 11.8918 74.9713 13.2621C74.9713 14.6503 75.3245 15.7862 76.0308 16.6516C76.7372 17.517 77.6731 17.9497 78.8385 17.9497C79.7391 17.9497 80.4808 17.7153 81.0635 17.2285C81.6463 16.7417 82.0347 16.0927 82.2113 15.2633H85.1603C84.8954 16.904 84.1891 18.1661 83.0943 19.0856ZM87.4913 1.12822H90.3873V13.1358L96.6737 6.28465H100.029L94.9079 11.9279L100.364 20.3116H96.921L92.8418 14.0914L90.4049 16.7237V20.3116H87.5089V1.12822H87.4913ZM103.667 15.678C103.72 16.4172 104.055 17.0122 104.673 17.4809C105.291 17.9497 106.086 18.1841 107.075 18.1841C107.958 18.1841 108.664 18.0218 109.211 17.6793C109.759 17.3367 110.024 16.886 110.024 16.3271C110.024 15.8583 109.9 15.4977 109.653 15.2633C109.406 15.0289 109.07 14.8486 108.646 14.7585C108.222 14.6503 107.569 14.5602 106.704 14.452C105.503 14.3078 104.514 14.1094 103.737 13.857C102.96 13.6046 102.324 13.226 101.865 12.6851C101.389 12.1442 101.159 11.423 101.159 10.5035C101.159 9.63813 101.389 8.88089 101.865 8.2138C102.342 7.54671 102.996 7.02385 103.825 6.66327C104.655 6.30268 105.609 6.12238 106.651 6.12238C108.381 6.12238 109.794 6.51903 110.871 7.2943C111.948 8.08759 112.531 9.18739 112.637 10.6117H109.812C109.741 9.98069 109.423 9.4398 108.876 9.04315C108.328 8.62848 107.622 8.43015 106.774 8.43015C105.927 8.43015 105.256 8.59242 104.726 8.91695C104.214 9.24148 103.949 9.69222 103.949 10.2511C103.949 10.6658 104.073 10.9903 104.338 11.1887C104.602 11.405 104.92 11.5493 105.309 11.6214C105.697 11.7115 106.333 11.8017 107.216 11.9098C108.399 12.036 109.388 12.2344 110.2 12.5048C111.013 12.7753 111.648 13.1899 112.125 13.7669C112.602 14.3438 112.849 15.1191 112.849 16.1107C112.849 16.9942 112.602 17.7514 112.09 18.4185C111.595 19.0856 110.907 19.5904 110.024 19.951C109.141 20.3116 108.169 20.4919 107.075 20.4919C105.238 20.4919 103.737 20.0592 102.607 19.2118C101.477 18.3644 100.876 17.1925 100.841 15.696H103.667V15.678Z" fill="white"/>
<path d="M14.8307 14.9253L19.3623 22H15.977L10.6573 13.6877L5.33761 22H1.97026L6.50185 14.9437H0V12.2653H21.3325V14.9253H14.8307Z" fill="white"/>
<path d="M21.3325 6.98237V9.66079V9.67926H0V6.98237H6.37647L1.89861 0H5.28388L10.6573 8.42317L16.0487 0H19.4339L14.9561 6.98237H21.3325Z" fill="white"/>
</svg>
